<?xml version="1.0" encoding="utf-8"?>
<!-- Generator: Adobe Illustrator 27.5.0, SVG Export Plug-In . SVG Version: 6.00 Build 0)  -->
<svg version="1.1" id="Layer_1" xmlns="http://www.w3.org/2000/svg" xmlns:xlink="http://www.w3.org/1999/xlink" x="0px" y="0px"
	 viewBox="0 0 595.28 841.89" style="enable-background:new 0 0 595.28 841.89;" xml:space="preserve">
<g>
	<path d="M286.3,445.71c-0.24,0.2-0.53,0.39-0.75,0.65c-3.75,4.3-8.52,6.79-14.08,7.8c-3.17,0.57-6.36,0.65-9.58,0.19
		c-3.27-0.46-6.39-1.33-9.32-2.85c-7.71-4-12.26-10.36-13.84-18.83c-0.89-4.79-0.83-9.61,0.55-14.31
		c2.84-9.67,9.22-15.87,18.83-18.78c3.22-0.98,6.53-1.19,9.88-1.16c3.25,0.02,6.42,0.51,9.45,1.58
		c10.02,3.55,15.9,10.66,17.88,21.06c0.35,1.82,0.44,3.66,0.44,5.5c0.02,7.44,0.01,14.87,0.01,22.31c0,3.71-0.42,7.35-1.56,10.9
		c-2.59,8.1-8.01,13.33-16.1,15.81c-2.21,0.68-4.48,1.15-6.82,1.24c-1.54,0.06-3.09,0.32-4.62,0.26c-4.05-0.16-8.05-0.64-11.88-2.11
		c-7.32-2.8-12.14-7.94-14.43-15.44c-0.07-0.22-0.1-0.46-0.17-0.79c0.32-0.14,0.62-0.39,0.93-0.39c2.38-0.03,4.76-0.02,7.14-0.03
		c0.66,0,1.15,0.25,1.37,0.92c0.02,0.06,0.05,0.11,0.07,0.16c2.14,4.89,6.11,7.45,11.11,8.63c2.49,0.59,5.04,0.87,7.61,0.73
		c2.74-0.14,5.44-0.54,8.01-1.56c4.16-1.65,7.04-4.59,8.66-8.73c0.89-2.28,1.43-4.66,1.51-7.12c0.05-1.43,0.14-2.85,0.18-4.28
		C286.81,446.61,286.86,446.1,286.3,445.71z M267.34,445.96c1.77,0.1,3.82-0.19,5.83-0.78c6.48-1.89,10.81-6,12.74-12.52
		c1.1-3.73,1.19-7.52,0.23-11.26c-1.75-6.87-5.99-11.49-12.84-13.54c-4.01-1.2-8.08-1.21-12.12-0.08
		c-6.31,1.76-10.54,5.77-12.67,11.95c-1.49,4.34-1.52,8.76-0.22,13.15c1.38,4.64,4.18,8.23,8.44,10.59
		C259.93,445.24,263.37,446,267.34,445.96z"/>
	<path d="M464.48,407.08c0.08-0.26,0.2-0.52,0.22-0.79c0.04-0.59,0.03-1.19,0.03-1.78c0-8.33,0-16.66,0-24.98
		c0-0.71,0.04-1.41,0.06-2.14c0.39-0.12,0.66-0.29,0.93-0.29c2.32-0.02,4.64-0.03,6.96-0.01c0.86,0.01,1.07,0.24,1.12,1.05
		c0.02,0.42,0.01,0.83,0.01,1.25c0,15.7,0.02,31.41-0.01,47.11c-0.01,4.94-0.99,9.69-3.32,14.09c-3.42,6.49-8.74,10.71-15.68,12.92
		c-1.93,0.61-3.9,0.98-5.92,1.2c-1.6,0.17-3.2,0.33-4.8,0.24c-8.85-0.47-16.43-3.62-22.05-10.7c-3.06-3.85-4.87-8.28-5.55-13.15
		c-0.75-5.33-0.45-10.59,1.59-15.61c3.79-9.35,10.78-14.88,20.67-16.67c4.44-0.8,8.87-0.61,13.25,0.62
		c4.34,1.22,8.07,3.45,11.16,6.74C463.47,406.55,463.71,407.1,464.48,407.08z M444.91,446.41c1.41-0.16,2.85-0.23,4.24-0.5
		c6.46-1.24,11.21-4.76,13.84-10.86c2.2-5.13,2.31-10.4,0.47-15.66c-2-5.71-5.94-9.54-11.69-11.38c-4.22-1.36-8.54-1.4-12.82-0.19
		c-6.31,1.79-10.5,5.85-12.58,12.05c-1.17,3.5-1.39,7.1-0.71,10.74c1.02,5.47,3.73,9.85,8.53,12.81
		C437.46,445.44,441.07,446.27,444.91,446.41z"/>
	<path d="M537.22,429.76c-0.79,0.36-1.52,0.23-2.22,0.23c-14.34,0.01-28.68,0-43.03,0.01c-0.76,0-1.54-0.11-2.24,0.14
		c-0.38,0.65-0.21,1.24-0.07,1.8c1.77,7.27,6.98,12.45,14.61,13.95c3.55,0.7,7.1,0.59,10.61-0.32c4.38-1.14,7.9-3.5,10.36-7.36
		c0.22-0.35,0.47-0.68,0.69-0.99c1.49-0.3,8.04-0.3,9.44,0c0.25,0.56-0.11,1.03-0.31,1.5c-2.23,5.2-5.8,9.23-10.65,12.13
		c-3.57,2.13-7.44,3.35-11.58,3.86c-1.9,0.23-3.8,0.35-5.69,0.23c-8.58-0.53-15.94-3.63-21.4-10.51c-3.3-4.16-5.04-8.95-5.67-14.22
		c-0.57-4.77-0.08-9.4,1.57-13.86c3.19-8.64,9.39-14.14,18.16-16.76c2.8-0.84,5.69-1.16,8.62-1.19c3.79-0.03,7.47,0.45,11.03,1.76
		c9.14,3.36,14.78,9.88,17.18,19.25c0.82,3.19,0.91,6.47,0.76,9.75C537.37,429.33,537.29,429.5,537.22,429.76z M527.56,421.46
		c-0.08-0.57-0.08-0.98-0.2-1.36c-1.88-6.23-6.02-10.22-12.17-12.19c-2.47-0.79-5.01-0.85-7.57-0.82c-2.78,0.04-5.41,0.69-7.91,1.86
		c-4.64,2.18-7.81,5.71-9.51,10.55c-0.21,0.61-0.49,1.22-0.21,1.91c0.16,0.07,0.31,0.19,0.47,0.19c12,0.02,24,0.03,36,0.03
		C526.76,421.64,527.05,421.55,527.56,421.46z"/>
	<path d="M170.41,453.37c-1.66,0.27-6.49,0.25-7.86-0.03c-0.44-0.42-0.35-0.98-0.36-1.5c-0.02-1.61,0-3.21-0.01-4.82
		c0-0.58,0.08-1.19-0.36-1.83c-0.26,0.16-0.52,0.26-0.7,0.45c-0.41,0.43-0.75,0.92-1.15,1.36c-3.46,3.84-7.77,6.19-12.8,7.28
		c-2.63,0.57-5.29,0.84-7.97,0.66c-12.56-0.84-22.3-8.52-25.25-20.32c-0.98-3.9-1.14-7.85-0.63-11.85
		c0.59-4.57,2.07-8.78,4.67-12.58c3.64-5.32,8.65-8.81,14.81-10.55c6.69-1.89,13.41-1.82,19.99,0.55
		c9.24,3.34,14.85,9.96,17.14,19.45c0.55,2.26,0.78,4.56,0.77,6.89c-0.02,8.33,0,16.66-0.01,24.98
		C170.69,452.11,170.81,452.72,170.41,453.37z M142.12,407.1c-1.6,0.04-3.19,0.02-4.78,0.38c-5.94,1.32-10.42,4.55-13.04,10.08
		c-2.5,5.29-2.71,10.8-0.79,16.3c2.13,6.11,6.44,9.99,12.68,11.71c3.26,0.9,6.56,1.01,9.88,0.38c6.32-1.21,11.05-4.58,13.72-10.49
		c2.49-5.52,2.55-11.19,0.34-16.81c-1.9-4.83-5.34-8.21-10.17-10.16C147.44,407.47,144.83,406.98,142.12,407.1z"/>
	<path d="M359.4,453.29c-1.29,0.33-5.8,0.4-7.84,0.13c-0.5-0.38-0.43-0.95-0.43-1.47c-0.02-1.73,0-3.45-0.01-5.18
		c0-0.52,0.05-1.07-0.33-1.49c-0.63-0.02-0.83,0.47-1.11,0.82c-1.52,1.86-3.25,3.47-5.27,4.77c-3.25,2.1-6.81,3.31-10.64,3.82
		c-1.66,0.22-3.32,0.33-4.98,0.27c-12.33-0.48-22.75-7.91-25.87-20.21c-0.96-3.78-1.2-7.6-0.72-11.5c0.37-3.04,1.07-5.97,2.33-8.75
		c3.52-7.74,9.48-12.62,17.6-14.99c3.95-1.15,7.99-1.33,12.02-0.99c5.18,0.43,10,2.05,14.27,5.11c5.52,3.95,8.88,9.34,10.43,15.9
		c0.52,2.2,0.79,4.44,0.79,6.71c-0.02,8.45,0,16.9-0.01,25.34C359.6,452.17,359.68,452.77,359.4,453.29z M330.9,406.96
		c-1.53,0.17-3.08,0.24-4.58,0.54c-6.18,1.26-10.71,4.71-13.31,10.49c-2.19,4.85-2.4,9.92-0.88,14.97
		c1.96,6.54,6.34,10.75,12.92,12.6c3.25,0.91,6.56,1.03,9.88,0.4c6.76-1.28,11.58-5.01,14.18-11.43c1.66-4.08,1.91-8.35,0.95-12.61
		c-1.52-6.76-5.52-11.46-12.14-13.79C335.65,407.33,333.32,406.99,330.9,406.96z"/>
	<path d="M110.12,383.29c0.27,1.57,0.27,6.96,0.01,8.53c-0.29,0.08-0.62,0.23-0.96,0.26c-0.53,0.05-1.07,0.02-1.61,0.02
		c-12.14,0-24.27,0-36.41,0c-0.77,0-1.53,0.03-2.2,0.04c-0.64,0.65-0.45,1.34-0.45,1.97c-0.02,3.39-0.01,6.78-0.01,10.17
		c0,2.26-0.01,4.52,0.01,6.78c0,0.58,0.06,1.16,0.1,1.81c0.44,0.1,0.77,0.21,1.11,0.23c0.59,0.04,1.19,0.02,1.78,0.02
		c10.11,0,20.23,0,30.34,0.01c0.7,0,1.43-0.14,2.2,0.23c0.44,1.34,0.17,2.77,0.21,4.16c0.04,1.42,0,2.84-0.01,4.32
		c-0.44,0.12-0.76,0.26-1.09,0.29c-0.53,0.05-1.07,0.02-1.61,0.02c-10.11,0-20.23,0-30.34,0c-0.59,0-1.19,0-1.78,0.05
		c-0.6,0.05-0.83,0.29-0.87,0.92c-0.04,0.59-0.04,1.19-0.04,1.78c0,8.8-0.01,17.6,0,26.41c0,2.34,0,2.27-2.25,2.26
		c-1.78-0.01-3.57,0-5.35,0c-0.59,0-1.18-0.03-1.82-0.05c-0.11-0.42-0.24-0.74-0.28-1.08c-0.05-0.41-0.02-0.83-0.02-1.25
		c0-21.89,0-43.77,0-65.66c0-0.3,0-0.59,0-0.89c0.03-1.47,0.12-1.56,1.67-1.6c0.3-0.01,0.59,0,0.89,0c15.47,0,30.94,0,46.4,0.01
		C108.51,383.04,109.29,382.9,110.12,383.29z"/>
	<path d="M187.71,453.43c-0.21,0.04-0.44,0.11-0.67,0.11c-2.26,0.01-4.52,0.03-6.78,0c-1.04-0.01-1.21-0.22-1.28-1.27
		c-0.02-0.36-0.01-0.71-0.01-1.07c0-8.5,0-17.01,0-25.51c0-2.86,0.17-5.7,0.84-8.49c1.02-4.24,2.81-8.08,5.82-11.27
		c3.37-3.58,7.57-5.66,12.32-6.77c3.69-0.86,7.44-0.91,11.17-0.62c3.45,0.27,6.78,1.15,9.91,2.71c5.43,2.71,9.11,6.96,11.19,12.62
		c1.2,3.26,1.83,6.65,1.84,10.12c0.04,9.28,0.02,18.55,0.02,27.83c0,0.47-0.06,0.94-0.1,1.44c-0.26,0.1-0.48,0.26-0.69,0.26
		c-2.5,0.02-4.99,0.01-7.49,0c-0.17,0-0.33-0.1-0.59-0.19c-0.06-0.31-0.17-0.64-0.19-0.98c-0.03-0.53-0.02-1.07-0.02-1.6
		c0-8.44-0.01-16.89,0-25.33c0-2.45-0.29-4.86-1.03-7.2c-1.86-5.91-5.8-9.54-11.9-10.76c-3.61-0.72-7.2-0.66-10.75,0.38
		c-4.99,1.47-8.29,4.73-10.04,9.58c-0.73,2.02-1.17,4.11-1.17,6.28c-0.01,3.75-0.03,7.49-0.03,11.24c-0.01,5.53,0,11.06-0.01,16.59
		C188.09,452.16,188.24,452.84,187.71,453.43z"/>
	<path d="M413.21,423.08c-2.16,0.29-7.24,0.23-8.55-0.08c-0.4-0.5-0.26-1.12-0.27-1.7c-0.02-1.73-0.25-3.44-0.68-5.11
		c-1.41-5.44-5.4-8.68-11-9.08c-2.21-0.16-4.39-0.13-6.55,0.4c-4.21,1.04-6.99,3.64-8.36,7.75c-0.84,2.52-0.93,5.15-0.94,7.76
		c-0.04,8.09-0.01,16.18-0.01,24.27c0,1.43,0.01,2.86,0,4.28c0,0.41-0.02,0.83-0.08,1.24c-0.05,0.39-0.3,0.63-0.7,0.7
		c-0.18,0.03-0.36,0.04-0.53,0.04c-2.14,0-4.29,0.02-6.43-0.01c-0.95-0.01-1.16-0.24-1.23-1.14c-0.03-0.41-0.03-0.83-0.03-1.25
		c0-9.7,0-19.4,0-29.09c0-2.8,0.13-5.59,0.87-8.31c0.97-3.57,2.59-6.76,5.24-9.39c2.51-2.49,5.53-4.11,8.93-5
		c5.16-1.34,10.36-1.39,15.51,0.02c7.12,1.95,11.69,6.55,13.82,13.61c0.89,2.94,1.02,5.96,1.19,8.99
		C413.43,422.32,413.29,422.67,413.21,423.08z"/>
</g>
</svg>
