<?xml version="1.0" encoding="utf-8"?>
<!-- Generator: Adobe Illustrator 27.3.1, SVG Export Plug-In . SVG Version: 6.00 Build 0)  -->
<svg version="1.1" id="Layer_1" xmlns="http://www.w3.org/2000/svg" xmlns:xlink="http://www.w3.org/1999/xlink" x="0px" y="0px"
	 viewBox="0 0 590 498.5" style="enable-background:new 0 0 590 498.5;" xml:space="preserve">
<style type="text/css">
	.st0{clip-path:url(#SVGID_00000011028167191388246520000001308855414886847374_);}
	.st1{fill:#F4B544;}
	.st2{clip-path:url(#SVGID_00000098925866011192179620000002718538418999923364_);}
	.st3{fill:#8CCFE5;}
</style>
<g>
	<g>
		<g>
			<defs>
				<rect id="SVGID_1_" x="173.3" y="191.8" width="241.3" height="197.6"/>
			</defs>
			<clipPath id="SVGID_00000068673341972048730000000002121432255259271350_">
				<use xlink:href="#SVGID_1_"  style="overflow:visible;"/>
			</clipPath>
			<g style="clip-path:url(#SVGID_00000068673341972048730000000002121432255259271350_);">
				<path class="st1" d="M413.1,229.5c-6.6,15.9-16.9,30.1-25.8,44.8c-8.1,13.2-18.3,16.2-32.8,11c-21.3-7.7-42.9-11.2-64.7-10.9
					c-2.3,0-3.7,2.5-2.6,4.5c3.4,5.9,7.3,11.1,11.9,15.6c12.5,12.4,20.8,16.5,29.9,22.9c8.8,6.2,9.5,6.6,16,11.4
					c7.5,5.6-2.2,17-5,20.9c-18.4,26-27.6,39-36,39.6c-2.8,0.2-8.2,0-27.2-15c-11.7-9.2-22.5-17.6-35.2-32.5
					c-20.7-24.4-41.1-56.4-53.2-78.4c-1.4-2.2-2.8-4.3-4.2-6.8c-2.5-4.6-4.8-9.2-7.1-13.9c-6.3-13-1.2-26.9,12.3-32.1
					c39.7-15.4,80.8-20.9,123.2-17.9c33.3,2.4,65.7,8.5,96.5,21.5C413.7,216.2,415.9,222.9,413.1,229.5L413.1,229.5L413.1,229.5
					L413.1,229.5z"/>
			</g>
		</g>
	</g>
</g>
<g>
	<g>
		<g>
			<defs>
				<rect id="SVGID_00000088815676144537908700000007366881970288814782_" x="146.5" y="100.5" width="295" height="116"/>
			</defs>
			<clipPath id="SVGID_00000119807931320475576400000008834883079126561200_">
				<use xlink:href="#SVGID_00000088815676144537908700000007366881970288814782_"  style="overflow:visible;"/>
			</clipPath>
			<g style="clip-path:url(#SVGID_00000119807931320475576400000008834883079126561200_);">
				<path class="st3" d="M167.4,215.1c-2.1-5.3-4.4-10.6-6.1-16c-4.4-13.9-9-27.8-12.8-41.9c-5.2-19.2,2.4-32.3,21.3-38
					c29.5-8.9,59.6-14.4,90.3-16.6c59.6-4.2,105-0.9,161.7,17.9c8.7,2.9,23.4,6.7,18,22.9c-3.3,13.8-5.1,20.6-9,34.2
					c-4.2,14.5-15.2,20-29.6,15.2c-40.2-13.3-81.4-19.4-123.7-17.5c-29.9,1.4-59.2,6.7-87.8,15.7c-11.5,3.6-18.4,11.7-20.3,23.8
					C169.3,215.9,167.8,216.1,167.4,215.1L167.4,215.1L167.4,215.1z"/>
			</g>
		</g>
	</g>
</g>
</svg>
